<?xml version="1.0" encoding="utf-8"?>
<!-- Generator: Adobe Illustrator 21.1.0, SVG Export Plug-In . SVG Version: 6.00 Build 0)  -->
<!DOCTYPE svg PUBLIC "-//W3C//DTD SVG 1.1//EN" "http://www.w3.org/Graphics/SVG/1.1/DTD/svg11.dtd" [
	<!ENTITY ns_extend "http://ns.adobe.com/Extensibility/1.0/">
	<!ENTITY ns_ai "http://ns.adobe.com/AdobeIllustrator/10.0/">
	<!ENTITY ns_graphs "http://ns.adobe.com/Graphs/1.0/">
	<!ENTITY ns_vars "http://ns.adobe.com/Variables/1.0/">
	<!ENTITY ns_imrep "http://ns.adobe.com/ImageReplacement/1.0/">
	<!ENTITY ns_sfw "http://ns.adobe.com/SaveForWeb/1.0/">
	<!ENTITY ns_custom "http://ns.adobe.com/GenericCustomNamespace/1.0/">
	<!ENTITY ns_adobe_xpath "http://ns.adobe.com/XPath/1.0/">
]>
<svg version="1.1" id="Layer_1" xmlns:x="&ns_extend;" xmlns:i="&ns_ai;" xmlns:graph="&ns_graphs;"
	 xmlns="http://www.w3.org/2000/svg" xmlns:xlink="http://www.w3.org/1999/xlink" x="0px" y="0px" viewBox="0 0 105 105"
	 style="enable-background:new 0 0 105 105;" xml:space="preserve">
<style type="text/css">
	.st0{opacity:0.8;fill:#1B1A1D;}
	.st1{fill:url(#SVGID_1_);}
	.st2{fill:url(#SVGID_2_);}
</style>
<switch>
	<g i:extraneous="self">
		<g>
			<rect y="-0.1" class="st0" width="105" height="105"/>
			<linearGradient id="SVGID_1_" gradientUnits="userSpaceOnUse" x1="4.6329" y1="101.6682" x2="99.3335" y2="-13.7581">
				<stop  offset="0" style="stop-color:#00ADDC"/>
				<stop  offset="1" style="stop-color:#6BFBFF"/>
			</linearGradient>
			<path class="st1" d="M52,58.6C52,58.6,52,58.6,52,58.6c5.6,0,12.3-7,12.3-15.6v0c0-6.8-5.5-12.3-12.3-12.3c0,0,0,0,0,0
				c-6.8,0-12.3,5.5-12.3,12.3C39.7,51.7,46.4,58.6,52,58.6z M52,34.8C52,34.8,52,34.8,52,34.8c4.6,0,8.3,3.7,8.3,8.3
				c0,4.9-4.1,11.5-8.3,11.6c0,0,0,0,0,0c-4.2,0-8.3-6.6-8.3-11.5C43.7,38.5,47.4,34.8,52,34.8z"/>
			<linearGradient id="SVGID_2_" gradientUnits="userSpaceOnUse" x1="9.5268" y1="105.6833" x2="104.2274" y2="-9.743">
				<stop  offset="0" style="stop-color:#00ADDC"/>
				<stop  offset="1" style="stop-color:#6BFBFF"/>
			</linearGradient>
			<path class="st2" d="M52.5,15.6c-20.8,0-37.7,16.9-37.7,37.7c0,15.1,8.9,28.2,21.8,34.2c1.3,0.6,2.6,1.1,3.9,1.6
				c3.8,1.3,7.8,2,12,2c4.1,0,8.1-0.7,11.8-1.9c1.3-0.4,2.6-1,3.9-1.5c13-6,22-19.1,22-34.3C90.2,32.5,73.3,15.6,52.5,15.6z
				 M52.5,90c-4.2,0-8.2-0.7-11.9-2l1.4-20.6c1.2-1,4.6-3.2,10.5-3.2c0,0,0,0,0,0c5.9,0,9.3,2.2,10.4,3.2l1.4,20.7
				C60.6,89.3,56.6,90,52.5,90z M68.2,86.5l-1.4-20.2c0-0.5-0.2-0.9-0.5-1.2c-0.2-0.2-4.7-4.9-13.9-4.9c0,0,0,0,0,0
				c-9.2,0-13.7,4.7-13.9,4.9c-0.3,0.3-0.5,0.8-0.5,1.2l-1.3,20.1c-12.3-5.9-20.9-18.5-20.9-33.1c0-20.2,16.5-36.7,36.7-36.7
				c20.2,0,36.7,16.5,36.7,36.7C89.2,68,80.6,80.6,68.2,86.5z"/>
		</g>
	</g>
</switch>
</svg>
