<?xml version="1.0" encoding="utf-8"?>
<!-- Generator: Adobe Illustrator 21.1.0, SVG Export Plug-In . SVG Version: 6.00 Build 0)  -->
<!DOCTYPE svg PUBLIC "-//W3C//DTD SVG 1.1//EN" "http://www.w3.org/Graphics/SVG/1.1/DTD/svg11.dtd" [
	<!ENTITY ns_extend "http://ns.adobe.com/Extensibility/1.0/">
	<!ENTITY ns_ai "http://ns.adobe.com/AdobeIllustrator/10.0/">
	<!ENTITY ns_graphs "http://ns.adobe.com/Graphs/1.0/">
	<!ENTITY ns_vars "http://ns.adobe.com/Variables/1.0/">
	<!ENTITY ns_imrep "http://ns.adobe.com/ImageReplacement/1.0/">
	<!ENTITY ns_sfw "http://ns.adobe.com/SaveForWeb/1.0/">
	<!ENTITY ns_custom "http://ns.adobe.com/GenericCustomNamespace/1.0/">
	<!ENTITY ns_adobe_xpath "http://ns.adobe.com/XPath/1.0/">
]>
<svg version="1.1" id="Layer_1" xmlns:x="&ns_extend;" xmlns:i="&ns_ai;" xmlns:graph="&ns_graphs;"
	 xmlns="http://www.w3.org/2000/svg" xmlns:xlink="http://www.w3.org/1999/xlink" x="0px" y="0px" viewBox="0 0 585 109"
	 style="enable-background:new 0 0 585 109;" xml:space="preserve">
<style type="text/css">
	.st0{opacity:0.43;fill:url(#SVGID_1_);}
	.st1{fill:none;stroke:url(#SVGID_2_);stroke-width:2;stroke-miterlimit:10;}
	.st2{fill:none;stroke:#FFFFFF;stroke-width:4;stroke-linecap:round;stroke-linejoin:round;stroke-miterlimit:10;}
</style>
<switch>
	<g i:extraneous="self">
		<g>
			<linearGradient id="SVGID_1_" gradientUnits="userSpaceOnUse" x1="-326.4796" y1="511.2228" x2="922.6905" y2="-410.4949">
				<stop  offset="0" style="stop-color:#00ADDC"/>
				<stop  offset="1" style="stop-color:#6BFBFF"/>
			</linearGradient>
			<rect x="1" y="1" class="st0" width="583" height="107"/>
			<linearGradient id="SVGID_2_" gradientUnits="userSpaceOnUse" x1="54.1024" y1="198.5423" x2="530.8976" y2="-89.5423">
				<stop  offset="0" style="stop-color:#00ADDC"/>
				<stop  offset="1" style="stop-color:#6BFBFF"/>
			</linearGradient>
			<rect x="1" y="1" class="st1" width="583" height="107"/>
			<g>
				<path class="st2" d="M264.4,55c1.3-3.2,3.3-6.9,6.5-10.1c8-8,18.9-9.1,18.9-9.1c-0.5,1.7,0,3.5,1.3,4.9l6.2,6.2
					c1.9,1.9,5.1,1.9,7,0l13.2-9.7c1.9-1.9,1.9-5.1,0-7l-8-8c-1.9-1.9-27.9-5.9-48,14.1c-22.6,22.6-15.2,45.2-13.3,47.2l7.6,7.6
					c1.9,1.9,5.1,1.9,7,0l10-12.8c1.9-1.9,1.9-5.1,0-7l-6.2-6.2c-1.6-1.6-4.5-1.4-4.5-1.4"/>
				<line class="st2" x1="262.2" y1="63.7" x2="256.5" y2="69.4"/>
				<line class="st2" x1="295.7" y1="30.3" x2="290" y2="36"/>
			</g>
		</g>
	</g>
</switch>
</svg>
