<?xml version="1.0" encoding="utf-8"?>
<!-- Generator: Adobe Illustrator 21.1.0, SVG Export Plug-In . SVG Version: 6.00 Build 0)  -->
<!DOCTYPE svg PUBLIC "-//W3C//DTD SVG 1.1//EN" "http://www.w3.org/Graphics/SVG/1.1/DTD/svg11.dtd" [
	<!ENTITY ns_extend "http://ns.adobe.com/Extensibility/1.0/">
	<!ENTITY ns_ai "http://ns.adobe.com/AdobeIllustrator/10.0/">
	<!ENTITY ns_graphs "http://ns.adobe.com/Graphs/1.0/">
	<!ENTITY ns_vars "http://ns.adobe.com/Variables/1.0/">
	<!ENTITY ns_imrep "http://ns.adobe.com/ImageReplacement/1.0/">
	<!ENTITY ns_sfw "http://ns.adobe.com/SaveForWeb/1.0/">
	<!ENTITY ns_custom "http://ns.adobe.com/GenericCustomNamespace/1.0/">
	<!ENTITY ns_adobe_xpath "http://ns.adobe.com/XPath/1.0/">
]>
<svg version="1.1" id="Inactive" xmlns:x="&ns_extend;" xmlns:i="&ns_ai;" xmlns:graph="&ns_graphs;"
	 xmlns="http://www.w3.org/2000/svg" xmlns:xlink="http://www.w3.org/1999/xlink" x="0px" y="0px" viewBox="0 0 92 92"
	 style="enable-background:new 0 0 92 92;" xml:space="preserve">
<style type="text/css">
	.st0{fill:none;stroke:#FFFFFF;stroke-width:2;stroke-miterlimit:10;}
	.st1{fill:url(#SVGID_1_);}
</style>
<switch>
	<g i:extraneous="self">
		<g>
			<g>
				<path class="st0" d="M51.5,22.8c-9.6,0-17.4,7.7-17.4,17.3c0,3.5,1,6.7,2.8,9.4L23.4,62.9c-0.3,0.3-0.4,0.9-0.1,1.2l2.5,2.5
					l2.4,2.4c0.3,0.3,0.8,0.3,1.2-0.1l13.7-13.7c2.5,1.3,5.3,2.1,8.3,2.1c9.6,0,17.4-7.7,17.4-17.3C68.9,30.5,61.1,22.8,51.5,22.8z"
					/>
				<path class="st0" d="M63.6,40.2c0,6.7-5.4,12.1-12.1,12.1c-6.7,0-12.1-5.4-12.1-12.1c0-6.7,5.4-12.1,12.1-12.1"/>
			</g>
			<g>
				<linearGradient id="SVGID_1_" gradientUnits="userSpaceOnUse" x1="-20.5235" y1="114.6983" x2="117.909" y2="-18.0096" gradientTransform="matrix(1 5.464556e-03 -5.464556e-03 1 -2.6463 -2.4025)">
					<stop  offset="0" style="stop-color:#00ADDC"/>
					<stop  offset="1" style="stop-color:#6BFBFF"/>
				</linearGradient>
				<path class="st1" d="M46,92c-0.1,0-0.2,0-0.3,0C20.4,91.9-0.1,71.1,0,45.7C0.1,20.5,20.7,0,46,0c0.1,0,0.2,0,0.3,0
					C71.6,0.1,92.1,20.9,92,46.3l0,0C91.9,71.5,71.3,92,46,92z M46,1.6C21.6,1.6,1.7,21.4,1.6,45.8C1.5,70.2,21.3,90.3,45.8,90.4
					c0.1,0,0.2,0,0.2,0c24.4,0,44.3-19.8,44.4-44.1C90.5,21.8,70.7,1.7,46.2,1.6C46.2,1.6,46.1,1.6,46,1.6z"/>
			</g>
		</g>
	</g>
</switch>
</svg>
